name rise34.3697peak60.0498fall86.3158.mot
datacolumns 19
datarows 26
range 4.88331600000000 4.92497700000000
endheader
time	ground_force1_vx	ground_force1_vy	ground_force1_vz	ground_force1_px	ground_force1_py	ground_force1_pz	ground_force2_vx	ground_force2_vy	ground_force2_vz	ground_force2_px	ground_force2_py	ground_force2_pz	ground_torque1_x	ground_torque1_y	ground_torque1_z	ground_torque2_x	ground_torque2_y	ground_torque2_z	
4.88331600000000	-40.50985100000000	842.93134999999995	61.87696900000000	0.22592400000000	0.00000000000000	0.11241400000000	-8.27646300000000	50.31264000000000	11.26784700000000	0.45767000000000	0.00000000000000	-0.06711400000000	0.00000000000000	36.36066700000000	0.00000000000000	0.00000000000000	10.00204700000000	0.00000000000000	
4.88500400000000	-40.65253400000000	841.17192000000000	61.72842600000000	0.22523500000000	0.00000000000000	0.11232200000000	-8.87945400000000	56.06146300000000	12.20028400000000	0.46025900000000	0.00000000000000	-0.06767500000000	0.00000000000000	36.17364600000000	0.00000000000000	0.00000000000000	10.86612900000000	0.00000000000000	
4.88664400000000	-40.80198700000000	839.24361199999998	61.55535400000000	0.22455300000000	0.00000000000000	0.11222700000000	-9.36101800000000	61.57879100000000	12.99631600000000	0.46269200000000	0.00000000000000	-0.06821400000000	0.00000000000000	35.97890200000000	0.00000000000000	0.00000000000000	11.61421300000000	0.00000000000000	
4.88831000000000	-40.95926600000000	837.14683800000000	61.35758600000000	0.22387600000000	0.00000000000000	0.11212700000000	-9.71485600000000	66.82971000000001	13.64816600000000	0.46498300000000	0.00000000000000	-0.06873200000000	0.00000000000000	35.77671500000000	0.00000000000000	0.00000000000000	12.23872200000000	0.00000000000000	
4.88998400000000	-41.12540100000000	834.88216100000000	61.13500700000000	0.22320500000000	0.00000000000000	0.11202400000000	-9.94054400000000	71.80538700000000	14.15553900000000	0.46714400000000	0.00000000000000	-0.06923200000000	0.00000000000000	35.56737400000000	0.00000000000000	0.00000000000000	12.73880600000000	0.00000000000000	
4.89165200000000	-41.30138700000000	832.45028000000002	60.88754300000000	0.22253900000000	0.00000000000000	0.11191600000000	-10.04267100000000	76.52004100000001	14.52455000000000	0.46918600000000	0.00000000000000	-0.06971700000000	0.00000000000000	35.35117900000000	0.00000000000000	0.00000000000000	13.11943000000000	0.00000000000000	
4.89332000000000	-41.48817800000000	829.85202700000002	60.61517100000000	0.22187800000000	0.00000000000000	0.11180500000000	-10.02972200000000	81.00653200000001	14.76630400000000	0.47111900000000	0.00000000000000	-0.07018700000000	0.00000000000000	35.12843900000000	0.00000000000000	0.00000000000000	13.39013500000000	0.00000000000000	
4.89498600000000	-41.68668600000000	827.08834899999999	60.31791000000000	0.22122200000000	0.00000000000000	0.11168900000000	-9.91284100000000	85.31118600000001	14.89531500000000	0.47295200000000	0.00000000000000	-0.07064500000000	0.00000000000000	34.89946900000000	0.00000000000000	0.00000000000000	13.56364100000000	0.00000000000000	
4.89665200000000	-41.89777100000000	824.16030499999999	59.99582900000000	0.22057000000000	0.00000000000000	0.11156900000000	-9.70458900000000	89.48841299999999	14.92792200000000	0.47469100000000	0.00000000000000	-0.07109100000000	0.00000000000000	34.66459000000000	0.00000000000000	0.00000000000000	13.65441800000000	0.00000000000000	
4.89831600000000	-42.12223800000000	821.06905300000005	59.64904200000000	0.21992300000000	0.00000000000000	0.11144600000000	-9.41781000000000	93.59558900000000	14.88082900000000	0.47634400000000	0.00000000000000	-0.07152800000000	0.00000000000000	34.42412700000000	0.00000000000000	0.00000000000000	13.67737600000000	0.00000000000000	
4.89998000000000	-42.36083000000000	817.81583799999999	59.27770700000000	0.21928000000000	0.00000000000000	0.11131800000000	-9.06467000000000	97.68856900000000	14.76986500000000	0.47791500000000	0.00000000000000	-0.07195500000000	0.00000000000000	34.17840700000000	0.00000000000000	0.00000000000000	13.64672400000000	0.00000000000000	
4.90164700000000	-42.61422400000000	814.40198699999996	58.88203000000000	0.21864200000000	0.00000000000000	0.11118600000000	-8.65591500000000	101.81806899999999	14.60902600000000	0.47941100000000	0.00000000000000	-0.07237400000000	0.00000000000000	33.92776200000000	0.00000000000000	0.00000000000000	13.57509100000000	0.00000000000000	
4.90331800000000	-42.88302500000000	810.82889200000000	58.46225900000000	0.21800700000000	0.00000000000000	0.11105000000000	-8.20037200000000	106.02705300000000	14.40982100000000	0.48083700000000	0.00000000000000	-0.07278600000000	0.00000000000000	33.67251800000000	0.00000000000000	0.00000000000000	13.47291400000000	0.00000000000000	
4.90497900000000	-43.16776200000000	807.09800900000005	58.01868900000000	0.21737600000000	0.00000000000000	0.11090900000000	-7.70468900000000	110.34913600000000	14.18091700000000	0.48219500000000	0.00000000000000	-0.07319000000000	0.00000000000000	33.41300300000000	0.00000000000000	0.00000000000000	13.34809700000000	0.00000000000000	
4.90665100000000	-43.46888100000000	803.21083899999996	57.55165500000000	0.21674800000000	0.00000000000000	0.11076500000000	-7.17327700000000	114.80794899999999	13.92807000000000	0.48349000000000	0.00000000000000	-0.07358800000000	0.00000000000000	33.14954000000000	0.00000000000000	0.00000000000000	13.20592500000000	0.00000000000000	
4.90831700000000	-43.78674100000000	799.16892900000005	57.06153600000000	0.21612400000000	0.00000000000000	0.11061700000000	-6.60844600000000	119.41734200000000	13.65427200000000	0.48472400000000	0.00000000000000	-0.07397900000000	0.00000000000000	32.88244900000000	0.00000000000000	0.00000000000000	13.04918200000000	0.00000000000000	
4.90998100000000	-44.12161100000000	794.97385399999996	56.54875000000000	0.21550300000000	0.00000000000000	0.11046400000000	-6.01066800000000	124.18224400000000	13.36008400000000	0.48590200000000	0.00000000000000	-0.07436500000000	0.00000000000000	32.61204000000000	0.00000000000000	0.00000000000000	12.87844500000000	0.00000000000000	
4.91165300000000	-44.47366500000000	790.62721499999998	56.01375600000000	0.21488500000000	0.00000000000000	0.11030800000000	-5.37893500000000	129.10001099999999	13.04409500000000	0.48702500000000	0.00000000000000	-0.07474500000000	0.00000000000000	32.33861800000000	0.00000000000000	0.00000000000000	12.69248100000000	0.00000000000000	
4.91331800000000	-44.84297700000000	786.13062800000000	55.45704900000000	0.21427000000000	0.00000000000000	0.11014800000000	-4.71116700000000	134.16205600000001	12.70342900000000	0.48809500000000	0.00000000000000	-0.07511900000000	0.00000000000000	32.06247700000000	0.00000000000000	0.00000000000000	12.48871200000000	0.00000000000000	
4.91498100000000	-45.22951800000000	781.48572000000001	54.87916300000000	0.21365800000000	0.00000000000000	0.10998300000000	-4.00462900000000	139.35559799999999	12.33428800000000	0.48911500000000	0.00000000000000	-0.07548900000000	0.00000000000000	31.78389900000000	0.00000000000000	0.00000000000000	12.26369200000000	0.00000000000000	
4.91665000000000	-45.63315400000000	776.69411500000001	54.28066500000000	0.21304900000000	0.00000000000000	0.10981500000000	-3.25632100000000	144.66537099999999	11.93244500000000	0.49008600000000	0.00000000000000	-0.07585300000000	0.00000000000000	31.50315600000000	0.00000000000000	0.00000000000000	12.01356700000000	0.00000000000000	
4.91831200000000	-46.05364000000000	771.75743699999998	53.66215600000000	0.21244200000000	0.00000000000000	0.10964300000000	-2.46332300000000	150.07517799999999	11.49369600000000	0.49100900000000	0.00000000000000	-0.07621200000000	0.00000000000000	31.22050400000000	0.00000000000000	0.00000000000000	11.73448100000000	0.00000000000000	
4.91997900000000	-46.49062200000000	766.67729499999996	53.02426800000000	0.21183800000000	0.00000000000000	0.10946800000000	-1.62308000000000	155.56920299999999	11.01422200000000	0.49188600000000	0.00000000000000	-0.07656600000000	0.00000000000000	30.93618400000000	0.00000000000000	0.00000000000000	11.42290600000000	0.00000000000000	
4.92164800000000	-46.94363300000000	761.45528400000001	52.36766400000000	0.21123600000000	0.00000000000000	0.10928800000000	-0.73360400000000	161.13303900000000	10.49085800000000	0.49271900000000	0.00000000000000	-0.07691500000000	0.00000000000000	30.65042400000000	0.00000000000000	0.00000000000000	11.07589400000000	0.00000000000000	
4.92331500000000	-47.41208800000000	756.09298000000001	51.69303100000000	0.21063600000000	0.00000000000000	0.10910500000000	0.20638600000000	166.75439100000000	9.92127500000000	0.49350600000000	0.00000000000000	-0.07725900000000	0.00000000000000	30.36343100000000	0.00000000000000	0.00000000000000	10.69124200000000	0.00000000000000	
4.92497700000000	-47.89528900000000	750.59193000000005	51.00108500000000	0.21003800000000	0.00000000000000	0.10891900000000	1.19740500000000	172.42349700000000	9.30406400000000	0.49425100000000	0.00000000000000	-0.07759800000000	0.00000000000000	30.07539700000000	0.00000000000000	0.00000000000000	10.26757500000000	0.00000000000000	
